<?xml version="1.0" encoding="UTF-8"?>
<svg version="1.1" xmlns="http://www.w3.org/2000/svg" width="512" height="512">
<path d="M0 0 C10.19764188 62.90163521 10.19764188 62.90163521 -6.27491796 87.06362665 C-12.07863164 95.03428541 -18.79055394 102.1560152 -25.79296875 109.07421875 C-26.76630968 110.03635654 -26.76630968 110.03635654 -27.75931406 111.01793146 C-35.8347132 118.93857879 -44.20667127 126.50331173 -52.71081078 133.95866597 C-60.70679257 140.98239594 -68.45026538 148.26886718 -76.20117188 155.56054688 C-84.14603165 163.02370322 -92.10309504 170.4637017 -100.23124695 177.72746277 C-132.62080613 206.72831732 -154.43245062 241.74704343 -158 286 C-160.52259983 332.38658941 -145.60596419 372.93143741 -115.02734375 407.68359375 C-92.46123531 432.75466189 -61.72908299 447.62464738 -29 454 C-27.741875 454.24621094 -26.48375 454.49242187 -25.1875 454.74609375 C6.4116235 459.85979119 39.4267365 454.04448545 68 440 C69.11632812 439.45601563 70.23265625 438.91203125 71.3828125 438.3515625 C107.28799191 419.92312102 134.37084054 387.48517464 147.75 349.625 C160.9886163 307.85179856 156.93797804 263.63425627 136.87548828 224.82470703 C130.38555827 212.63925183 122.33923289 200.61712695 112.05078125 191.296875 C111.03564453 190.15992188 111.03564453 190.15992188 110 189 C110.28962339 185.38491105 112.00048168 183.63342153 114.51000977 181.14941406 C115.25070206 180.40894836 115.99139435 179.66848267 116.75453186 178.90557861 C117.55870041 178.11689392 118.36286896 177.32820923 119.19140625 176.515625 C120.01124496 175.70003113 120.83108368 174.88443726 121.67576599 174.04412842 C124.29772762 171.43896894 126.92992448 168.84442921 129.5625 166.25 C131.34117845 164.48636631 133.11918192 162.7220516 134.89648438 160.95703125 C139.2565194 156.63008597 143.62500527 152.31181602 148 148 C149.12112507 148.95284975 150.24110239 149.90705006 151.3605957 150.86181641 C151.98440628 151.39304108 152.60821686 151.92426575 153.25093079 152.47158813 C170.90143222 167.89535502 183.13008276 190.0682247 193 211 C193.52335937 212.10472656 194.04671875 213.20945313 194.5859375 214.34765625 C217.10565318 264.33189289 217.73592053 322.59319156 198.84326172 373.79833984 C189.32889826 398.63925752 175.67844227 421.15440058 158 441 C157.55688477 441.5048291 157.11376953 442.0096582 156.65722656 442.52978516 C122.13357935 481.80705362 73.20439487 507.04481913 21 512 C17.9699823 512.15913539 14.9439612 512.20947337 11.91015625 512.23828125 C11.05664581 512.2480751 10.20313538 512.25786896 9.32376099 512.26795959 C-43.54246565 512.74947691 -92.66943271 499.18108652 -134 465 C-134.58652344 464.51499023 -135.17304688 464.02998047 -135.77734375 463.53027344 C-145.66082313 455.302747 -154.68257799 446.89340746 -162.73046875 436.81640625 C-164.15709593 435.04601348 -165.61429727 433.29940589 -167.11328125 431.58984375 C-202.08773994 391.24453583 -216.33483304 334.3067694 -212.6875 281.88671875 C-210.13365056 251.9311698 -200.99510091 223.50179118 -187 197 C-186.53255371 196.10498779 -186.53255371 196.10498779 -186.05566406 195.19189453 C-174.64178678 173.54176223 -157.84935582 155.53833767 -140.64624023 138.38745117 C-139.13022843 136.86872295 -137.61464103 135.34957099 -136.09944153 133.83003235 C-132.02208235 129.74363285 -127.93851683 125.66349078 -123.85344958 121.58479857 C-119.56994971 117.30639207 -115.29136513 113.02307439 -111.01197815 108.74055481 C-103.83961809 101.56456912 -96.66307922 94.39278291 -89.48413086 87.22338867 C-81.17713213 78.92731749 -72.87742429 70.62400438 -64.58137745 62.31698245 C-57.44855114 55.17509755 -50.31185691 48.03709536 -43.1718784 40.90236074 C-38.91097993 36.64458399 -34.65145345 32.38545835 -30.39541435 28.12282372 C-26.40504284 24.12669859 -22.4098562 20.13545232 -18.41081047 16.14800835 C-16.94085352 14.6807067 -15.47261582 13.21168049 -14.00618362 11.74085617 C-12.01299774 9.74224881 -10.01382585 7.74983507 -8.01292419 5.75895691 C-7.42704716 5.16861843 -6.84117012 4.57827995 -6.23753923 3.97005242 C-2.22830291 0 -2.22830291 0 0 0 Z " fill="#EE4C2C" transform="translate(257,0)"/>
<path d="M0 0 C7.31464971 4.94976296 10.45655004 11.26555978 12.59765625 19.7578125 C13.87334027 27.49001971 11.44117737 34.95114869 7.5 41.61328125 C3.27485563 47.18474282 -3.62206341 51.29539909 -10.40234375 52.7578125 C-20.01881405 53.59925365 -27.57913503 52.38134933 -35.15234375 46.1953125 C-41.8987562 39.67338663 -44.65746571 33.67547636 -45.02734375 24.2578125 C-44.69921423 15.46039392 -42.02541942 9.40938328 -36.21484375 2.8828125 C-25.80222023 -6.58931599 -11.89057353 -6.73642506 0 0 Z " fill="#EE4C2C" transform="translate(347.40234375,88.2421875)"/>
</svg>
